<?xml version="1.0" encoding="UTF-8"?>
<svg width="461px" height="578px" viewBox="0 0 461 578" version="1.1" xmlns="http://www.w3.org/2000/svg" xmlns:xlink="http://www.w3.org/1999/xlink">
    <!-- Generator: Sketch 48.2 (47327) - http://www.bohemiancoding.com/sketch -->
    <title>icon</title>
    <desc>Created with Sketch.</desc>
    <defs>
        <linearGradient x1="50%" y1="13.7806902%" x2="50%" y2="100.403278%" id="linearGradient-1">
            <stop stop-color="#1EF5FF" stop-opacity="0" offset="0%"></stop>
            <stop stop-color="#A6E5A0" stop-opacity="0.800356658" offset="100%"></stop>
        </linearGradient>
        <path d="M324.875,190.569287 C325.362339,187.658003 324.422208,184.565428 322.097927,182.410774 C318.431174,179.011623 312.708104,179.233936 309.315092,182.907325 L281.585566,212.928242 L260.99585,173.032512 C260.861504,167.687125 257.473853,162.721218 252.094181,160.796851 C245.09297,158.292442 237.369104,161.887835 234.842443,168.827386 L211.803931,232.103346 C211.770042,232.196424 211.73726,232.28963 211.705579,232.382951 C210.914654,233.133657 210.252699,234.047257 209.775228,235.102822 C207.798739,239.47233 209.731917,244.619836 214.093102,246.600097 L217.176148,248 L210.572874,248 C206.390491,248 203,251.357864 203,255.5 C203,259.642136 206.390491,263 210.572874,263 L217.323135,263 L198.718261,300.630426 C193.6198,298.923907 188.167317,298 182.5,298 C165.357187,298 150.180054,306.453517 140.82085,319.449963 C100.450549,239.566261 84.1318113,179.937752 91.8646377,140.564437 C112.218347,36.9292382 220.825307,-2.62822498e-14 273.966615,0 C327.107923,2.62963497e-14 430.437996,28.4575004 454.578859,140.564437 C463.512057,182.049015 448.872603,241.009164 410.660497,317.444885 C401.223968,305.590791 386.74452,298 370.5,298 C366.839592,298 363.268805,298.385418 359.82514,299.118184 L324.875,190.569287 Z M312.386021,206.267786 L337.637586,284.69464 L290.484405,320.41546 L305.5787,280.076207 C305.820375,279.706036 306.036861,279.312601 306.224772,278.897178 C306.795699,277.635005 307.040405,276.307915 306.994601,275.011 C307.122917,271.377205 304.955735,267.907266 301.377815,266.558077 C300.548065,266.245189 299.700621,266.068296 298.859795,266.01632 L238.148972,238.449664 L252.122775,200.070197 L268.861897,232.504812 C271.435655,237.491862 277.55178,239.441429 282.522646,236.859291 C282.813479,236.708217 283.093948,236.544977 283.363755,236.370513 C284.5902,235.887191 285.729858,235.126645 286.684908,234.092675 L312.386021,206.267786 Z M233.676865,263 L238.427126,263 C240.768787,263 242.862212,261.947399 244.251321,260.293887 L287.170495,279.781979 L272.018239,320.276133 C270.704894,320.094091 269.363435,320 268,320 C265.996063,320 264.039599,320.203257 262.1501,320.59028 L233.676865,263 Z M344.255462,305.248581 C329.131365,314.311075 319,330.967034 319,350 C319,376.300401 338.345491,398.061988 363.477856,401.520804 C338.447083,442.273621 308.398106,486.746681 273.330926,534.939983 C239.851342,486.70955 210.957247,442.340818 186.648641,401.833788 C209.498603,399.995316 228.130108,383.102455 232.845232,361 L241.59145,361 C246.155514,371.028125 256.263573,378 268,378 C284.016258,378 297,365.016258 297,349 C297,345.116462 296.236634,341.411219 294.851767,338.026134 L343.05233,301.51187 L344.255462,305.248581 Z M272,161 C290.777681,161 306,145.777681 306,127 C306,108.222319 290.777681,93 272,93 C253.222319,93 238,108.222319 238,127 C238,145.777681 253.222319,161 272,161 Z" id="path-2"></path>
        <path d="M17.4667969,142.855416 C7.15559896,131.279054 2,121.242395 2,112.745437 C2,100 11.3926388,100 17.4667969,100 C23.540955,100 32.9335938,100 32.9335938,112.745437 C32.9335938,121.242395 27.7779948,131.279054 17.4667969,142.855416 Z M17.4977692,118.961952 C21.0804314,118.961952 23.9847529,115.945926 23.9847529,112.225469 C23.9847529,108.505012 21.0804314,105.488986 17.4977692,105.488986 C13.915107,105.488986 11.0107855,108.505012 11.0107855,112.225469 C11.0107855,115.945926 13.915107,118.961952 17.4977692,118.961952 Z" id="path-3"></path>
    </defs>
    <g id="A6" stroke="none" stroke-width="1" fill="none" fill-rule="evenodd" transform="translate(-69.000000, -11.000000)">
        <g id="icon" transform="translate(71.000000, 13.000000)">
            <g id="Combined-Shape" stroke-linecap="round">
                <use fill="#BBDEFB" fill-rule="evenodd" xlink:href="#path-2"></use>
                <use fill="url(#linearGradient-1)" fill-rule="evenodd" style="mix-blend-mode: darken;" xlink:href="#path-2"></use>
                <use stroke="#8AACC8" stroke-width="3" xlink:href="#path-2"></use>
            </g>
            <path d="M17.4634254,143 C2.83842543,159.361979 -0.649855824,175.833333 6.99858168,192.414062 C18.4712379,217.285156 75.2642067,191.394531 75.2642067,236.308594 C75.2642067,281.222656 -14.6459496,286.816406 2.07280043,325.773438 C18.7915504,364.730469 153.231446,345.500274 151.584519,387.913076 C149.937592,430.325879 4.5591566,496.008902 6.99858168,527.617188 C9.43800675,559.225473 87.8501442,577.484375 163.053269,573.160156 C213.188686,570.277344 250.165248,557.679688 273.982957,535.367188" id="Path-4" stroke="#8AACC8" stroke-width="3" stroke-dasharray="42,16"></path>
            <g id="Combined-Shape">
                <use fill="#BBDEFB" xlink:href="#path-3"></use>
                <use stroke="#8AACC8" stroke-width="1" fill="url(#linearGradient-1)" xlink:href="#path-3"></use>
            </g>
        </g>
    </g>
</svg>